<svg width="82" height="38" viewBox="0 0 82 38" fill="none" xmlns="http://www.w3.org/2000/svg">
<g clip-path="url(#clip0_224_882)">
<path fill-rule="evenodd" clip-rule="evenodd" d="M16.5464 3.14993C14.9357 1.53922 12.3 0.660645 9.66429 0.660645C7.90714 0.660645 6.15 1.09993 4.53929 1.39279C2.92857 1.68564 1.46429 1.83207 0 2.12493V28.4821L2.78214 28.0428C3.36786 27.8964 3.80714 27.4571 3.80714 26.8714V18.9642C6.15 19.4035 8.78571 19.8428 9.51786 19.8428C12.1536 19.8428 14.7893 18.9642 16.5464 17.2071C18.3036 15.4499 19.0357 12.8142 19.1821 10.1785C19.1821 7.68922 18.3036 4.90707 16.5464 3.14993ZM13.9107 14.5713C12.8857 15.5963 11.1286 16.0356 9.66429 16.0356C7.76072 16.0356 5.85714 15.4499 3.95357 15.1571V15.1571V5.34635C4.24643 5.34635 7.76072 4.46778 9.66429 4.46778C11.275 4.46778 12.8857 4.90706 13.9107 5.93206C14.9357 6.95706 15.375 8.71421 15.375 10.3249C15.375 11.7892 14.9357 13.5463 13.9107 14.5713Z" fill="#2B59C3"/>
<path fill-rule="evenodd" clip-rule="evenodd" d="M56.0822 10.1784C54.3251 9.88557 52.5679 9.44629 50.9572 9.44629C48.3215 9.44629 45.6858 10.3249 43.9286 11.9356C42.1715 13.6927 41.2929 16.3284 41.2929 18.9641C41.2929 21.5999 42.1715 24.2356 43.9286 25.9927C45.6858 27.7499 48.3215 28.6284 50.9572 28.6284C51.6893 28.6284 54.3251 28.1891 56.6679 27.7499C56.6679 28.6284 56.6679 29.507 56.6679 30.3856C56.6679 31.4106 56.2286 32.2891 55.4965 32.8749C54.3251 33.7534 52.7143 33.607 51.3965 33.3141C49.9322 33.1677 48.6143 32.7284 47.2965 32.2891C46.8572 32.1427 46.4179 32.2891 45.9786 32.582L44.0751 34.4856V34.4856C46.1251 35.8034 48.6143 36.682 50.9572 37.1213C53.3001 37.5606 55.6429 37.4141 57.5465 35.9499C57.8393 35.657 58.2786 35.3641 58.5715 35.0713C59.8893 33.607 60.3286 31.8499 60.3286 30.0927C60.3286 29.0677 60.3286 28.1891 60.3286 27.1641V10.9106C59.0108 10.6177 57.5465 10.4713 56.0822 10.1784H56.0822ZM56.6679 23.7963C56.6679 23.9427 56.6679 23.9427 56.6679 23.7963C54.7643 24.2356 52.8608 24.6749 50.9572 24.6749C49.3465 24.6749 47.7358 24.2356 46.7108 23.2106C45.6858 22.1856 45.2465 20.5749 45.2465 18.9642C45.2465 17.3534 45.6858 15.7427 46.7108 14.5713C47.7358 13.5463 49.3465 13.107 50.9572 13.107C52.8608 13.107 56.5215 13.9856 56.8143 13.9856V23.7963H56.6679Z" fill="#2B59C3"/>
<path fill-rule="evenodd" clip-rule="evenodd" d="M79.3642 11.9355C77.6071 10.1784 74.9714 9.44623 72.3357 9.2998C69.7 9.2998 67.0642 10.1784 65.3071 11.9355C63.55 13.6927 62.8178 16.3284 62.6714 18.9641V18.9641C62.6714 21.5998 63.55 24.2355 65.3071 25.9927C67.0642 27.7498 69.7 28.4819 72.3357 28.6284V28.6284C74.9714 28.6284 77.6071 27.7498 79.3642 25.9927C81.1214 24.2355 82 21.5998 82 18.9641V18.8177C82 16.3284 81.1214 13.6927 79.3642 11.9355ZM76.7285 23.3569C75.7035 24.3819 73.9464 24.8212 72.4821 24.8212C70.8714 24.8212 69.2607 24.3819 68.2357 23.3569C67.2107 22.3319 66.7714 20.5748 66.7714 18.9641C66.7714 17.3534 67.2107 15.7427 68.2357 14.7177C69.2607 13.6927 71.0178 13.2534 72.6285 13.2534C74.2392 13.2534 75.85 13.6927 76.875 14.7177C77.9 15.7427 78.3392 17.4998 78.3392 19.1105C78.1928 20.5748 77.7535 22.3319 76.7285 23.3569Z" fill="#2B59C3"/>
<path fill-rule="evenodd" clip-rule="evenodd" d="M36.4607 11.9355C34.7036 10.1784 32.0679 9.44623 29.4322 9.2998C26.7965 9.2998 24.1607 10.1784 22.4036 11.9355C20.6465 13.6927 19.7679 16.3284 19.7679 18.9641C19.7679 21.5998 20.6465 24.2355 22.4036 25.9927C24.1607 27.7498 26.7965 28.4819 29.4322 28.6284C31.4822 28.6284 33.6786 28.1891 35.2893 27.0177C35.4357 27.8962 36.1679 28.6284 37.1929 28.6284C37.7786 28.6284 39.0965 28.6284 39.0965 28.6284C39.0965 28.6284 39.0965 19.4034 39.0965 18.8177V18.6712C38.95 16.1819 38.0715 13.6927 36.4607 11.9355ZM33.6786 23.3569C32.6536 24.3819 30.8965 24.8212 29.2857 24.8212C27.675 24.8212 26.0643 24.3819 25.0393 23.3569C24.0143 22.3319 23.575 20.5748 23.575 18.9641C23.575 17.3534 24.0143 15.7427 25.0393 14.7177C26.0643 13.6927 27.8215 13.2534 29.4322 13.2534C31.0429 13.2534 32.6536 13.6927 33.6786 14.7177C34.7036 15.7427 35.1429 17.4998 35.1429 19.1105C35.1429 20.5748 34.85 22.3319 33.6786 23.3569Z" fill="#2B59C3"/>
</g>
<defs>
<clipPath id="clip0_224_882">
<rect width="82" height="36.6786" fill="white" transform="translate(0 0.660645)"/>
</clipPath>
</defs>
</svg>
